<svg width="250" height="250" viewBox="-125 -125 250 250" role="img" aria-label="Animated bloub avatar" xmlns="http://www.w3.org/2000/svg"><defs><mask id="bot-mask-h68ozy" maskUnits="userSpaceOnUse" x="-158" y="-158" width="316" height="316"><path d="M99.52 -0.45C99.52 2.8 99.36 6.07 99.04 9.3C98.72 12.54 98.23 15.77 97.6 18.96C96.96 22.15 96.16 25.32 95.21 28.44C94.26 31.55 93.16 34.63 91.9 37.63C90.65 40.64 89.25 43.59 87.71 46.46C86.17 49.33 84.48 52.13 82.66 54.84C80.85 57.54 78.89 60.17 76.82 62.68C74.75 65.19 72.54 67.62 70.23 69.92C67.92 72.22 65.48 74.41 62.96 76.48C60.43 78.54 57.79 80.49 55.07 82.29C52.36 84.1 49.54 85.78 46.66 87.31C43.78 88.85 40.8 90.25 37.79 91.49C34.77 92.73 31.67 93.84 28.55 94.78C25.42 95.72 22.23 96.52 19.03 97.15C15.82 97.79 12.57 98.27 9.32 98.59C6.07 98.91 2.78 99.07 -0.48 99.07C-3.75 99.07 -7.03 98.91 -10.28 98.59C-13.54 98.27 -16.79 97.79 -19.99 97.15C-23.2 96.52 -26.39 95.72 -29.51 94.78C-32.64 93.84 -35.73 92.73 -38.75 91.49C-41.77 90.25 -44.74 88.85 -47.62 87.31C-50.5 85.78 -53.32 84.1 -56.04 82.29C-58.76 80.49 -61.4 78.54 -63.92 76.48C-66.45 74.41 -68.88 72.22 -71.19 69.92C-73.5 67.62 -75.71 65.19 -77.78 62.68C-79.86 60.17 -81.81 57.54 -83.63 54.84C-85.45 52.13 -87.14 49.33 -88.68 46.46C-90.22 43.59 -91.62 40.64 -92.87 37.63C-94.12 34.63 -95.23 31.55 -96.18 28.44C-97.13 25.32 -97.92 22.15 -98.56 18.96C-99.2 15.77 -99.68 12.54 -100 9.3C-100.32 6.07 -100.48 2.8 -100.48 -0.45C-100.48 -3.71 -100.32 -6.97 -100 -10.21C-99.68 -13.44 -99.2 -16.68 -98.56 -19.87C-97.92 -23.06 -97.13 -26.23 -96.18 -29.34C-95.23 -32.45 -94.12 -35.53 -92.87 -38.54C-91.62 -41.54 -90.22 -44.5 -88.68 -47.37C-87.14 -50.23 -85.45 -53.04 -83.63 -55.74C-81.81 -58.45 -79.86 -61.07 -77.78 -63.59C-75.71 -66.1 -73.5 -68.53 -71.19 -70.82C-68.88 -73.12 -66.45 -75.32 -63.92 -77.38C-61.4 -79.45 -58.76 -81.39 -56.04 -83.2C-53.32 -85.01 -50.5 -86.69 -47.62 -88.22C-44.74 -89.75 -41.77 -91.15 -38.75 -92.4C-35.73 -93.64 -32.64 -94.74 -29.51 -95.69C-26.39 -96.63 -23.2 -97.43 -19.99 -98.06C-16.79 -98.7 -13.54 -99.18 -10.28 -99.49C-7.03 -99.81 -3.75 -99.97 -0.48 -99.97C2.78 -99.97 6.07 -99.81 9.32 -99.49C12.57 -99.18 15.82 -98.7 19.03 -98.06C22.23 -97.43 25.42 -96.63 28.55 -95.69C31.67 -94.74 34.77 -93.64 37.79 -92.4C40.8 -91.15 43.78 -89.75 46.66 -88.22C49.54 -86.69 52.36 -85.01 55.07 -83.2C57.79 -81.39 60.43 -79.45 62.96 -77.38C65.48 -75.32 67.92 -73.12 70.23 -70.82C72.54 -68.53 74.75 -66.1 76.82 -63.59C78.89 -61.07 80.85 -58.45 82.66 -55.74C84.48 -53.04 86.17 -50.23 87.71 -47.37C89.25 -44.5 90.65 -41.54 91.9 -38.54C93.16 -35.53 94.26 -32.45 95.21 -29.34C96.16 -26.23 96.96 -23.06 97.6 -19.87C98.23 -16.68 98.72 -13.44 99.04 -10.21C99.36 -6.97 99.52 -3.71 99.52 -0.45Z" fill="#fff"/><path d="M-9.3 -11.3A9.3 9.3 0 0 1 0 -20.6L0 -20.6A9.3 9.3 0 0 1 9.3 -11.3L9.3 11.3A9.3 9.3 0 0 1 0 20.6L0 20.6A9.3 9.3 0 0 1 -9.3 11.3Z" transform="matrix(0.88,-0.32,0.43,0.84,19.61,-44.43)" opacity="1" fill="#000"/><path d="M-9.3 -11.3A9.3 9.3 0 0 1 0 -20.6L0 -20.6A9.3 9.3 0 0 1 9.3 -11.3L9.3 11.3A9.3 9.3 0 0 1 0 20.6L0 20.6A9.3 9.3 0 0 1 -9.3 11.3Z" transform="matrix(0.65,-0.04,0.43,0.84,61.87,-54.39)" opacity="1" fill="#000"/></mask></defs><g fill="none" stroke-linecap="round"></g><g opacity="1"><path d="M99.52 -0.45C99.52 2.8 99.36 6.07 99.04 9.3C98.72 12.54 98.23 15.77 97.6 18.96C96.96 22.15 96.16 25.32 95.21 28.44C94.26 31.55 93.16 34.63 91.9 37.63C90.65 40.64 89.25 43.59 87.71 46.46C86.17 49.33 84.48 52.13 82.66 54.84C80.85 57.54 78.89 60.17 76.82 62.68C74.75 65.19 72.54 67.62 70.23 69.92C67.92 72.22 65.48 74.41 62.96 76.48C60.43 78.54 57.79 80.49 55.07 82.29C52.36 84.1 49.54 85.78 46.66 87.31C43.78 88.85 40.8 90.25 37.79 91.49C34.77 92.73 31.67 93.84 28.55 94.78C25.42 95.72 22.23 96.52 19.03 97.15C15.82 97.79 12.57 98.27 9.32 98.59C6.07 98.91 2.78 99.07 -0.48 99.07C-3.75 99.07 -7.03 98.91 -10.28 98.59C-13.54 98.27 -16.79 97.79 -19.99 97.15C-23.2 96.52 -26.39 95.72 -29.51 94.78C-32.64 93.84 -35.73 92.73 -38.75 91.49C-41.77 90.25 -44.74 88.85 -47.62 87.31C-50.5 85.78 -53.32 84.1 -56.04 82.29C-58.76 80.49 -61.4 78.54 -63.92 76.48C-66.45 74.41 -68.88 72.22 -71.19 69.92C-73.5 67.62 -75.71 65.19 -77.78 62.68C-79.86 60.17 -81.81 57.54 -83.63 54.84C-85.45 52.13 -87.14 49.33 -88.68 46.46C-90.22 43.59 -91.62 40.64 -92.87 37.63C-94.12 34.63 -95.23 31.55 -96.18 28.44C-97.13 25.32 -97.92 22.15 -98.56 18.96C-99.2 15.77 -99.68 12.54 -100 9.3C-100.32 6.07 -100.48 2.8 -100.48 -0.45C-100.48 -3.71 -100.32 -6.97 -100 -10.21C-99.68 -13.44 -99.2 -16.68 -98.56 -19.87C-97.92 -23.06 -97.13 -26.23 -96.18 -29.34C-95.23 -32.45 -94.12 -35.53 -92.87 -38.54C-91.62 -41.54 -90.22 -44.5 -88.68 -47.37C-87.14 -50.23 -85.45 -53.04 -83.63 -55.74C-81.81 -58.45 -79.86 -61.07 -77.78 -63.59C-75.71 -66.1 -73.5 -68.53 -71.19 -70.82C-68.88 -73.12 -66.45 -75.32 -63.92 -77.38C-61.4 -79.45 -58.76 -81.39 -56.04 -83.2C-53.32 -85.01 -50.5 -86.69 -47.62 -88.22C-44.74 -89.75 -41.77 -91.15 -38.75 -92.4C-35.73 -93.64 -32.64 -94.74 -29.51 -95.69C-26.39 -96.63 -23.2 -97.43 -19.99 -98.06C-16.79 -98.7 -13.54 -99.18 -10.28 -99.49C-7.03 -99.81 -3.75 -99.97 -0.48 -99.97C2.78 -99.97 6.07 -99.81 9.32 -99.49C12.57 -99.18 15.82 -98.7 19.03 -98.06C22.23 -97.43 25.42 -96.63 28.55 -95.69C31.67 -94.74 34.77 -93.64 37.79 -92.4C40.8 -91.15 43.78 -89.75 46.66 -88.22C49.54 -86.69 52.36 -85.01 55.07 -83.2C57.79 -81.39 60.43 -79.45 62.96 -77.38C65.48 -75.32 67.92 -73.12 70.23 -70.82C72.54 -68.53 74.75 -66.1 76.82 -63.59C78.89 -61.07 80.85 -58.45 82.66 -55.74C84.48 -53.04 86.17 -50.23 87.71 -47.37C89.25 -44.5 90.65 -41.54 91.9 -38.54C93.16 -35.53 94.26 -32.45 95.21 -29.34C96.16 -26.23 96.96 -23.06 97.6 -19.87C98.23 -16.68 98.72 -13.44 99.04 -10.21C99.36 -6.97 99.52 -3.71 99.52 -0.45Z" fill="#f9f9f9"/><g mask="url(#bot-mask-h68ozy)"><rect x="-158" y="-158" width="316" height="316" fill="#0a0a0c"/></g></g><g></g><g fill="none" stroke-linecap="round"></g></svg>